<svg id="Layer_1" data-name="Layer 1" xmlns="http://www.w3.org/2000/svg" viewBox="0 0 1500 243.14"><defs><style>.cls-1{fill:#014e94;}.cls-2{fill:#00a99d;}</style></defs><path class="cls-1" d="M36.87,621.57V472.76H0V449.51H36.87V434.56q0-28.56,16.28-43.18,14.26-12.94,39.52-12.95h53.48v23.25H95q-29.56,0-29.57,26.91v20.92h80.72v23.25H65.43V621.57Z" transform="translate(0 -378.43)"/><path class="cls-1" d="M183.58,621.57V378.43h28.56V621.57Z" transform="translate(0 -378.43)"/><path class="cls-1" d="M248.79,552.81v-37.2q0-38.87,26.57-55.47,21.93-13.27,67.1-13.29h40.86q45.17,0,67.09,13.29Q477,476.76,477,515.61v37.2q0,38.87-26.58,55.14-21.92,13.62-67.09,13.62H342.46q-45.18,0-67.1-13.62Q248.78,591.67,248.79,552.81Zm199.63-1.66V517.27q0-27.57-15.61-38.53-13-8.62-40.86-8.63H333.82q-27.9,0-40.52,8.63-15.94,11-15.94,38.53v33.88q0,27.57,15.94,38.53,12.61,8.64,40.52,8.64H392q27.9,0,40.86-8.64Q448.41,578.72,448.42,551.15Z" transform="translate(0 -378.43)"/><path class="cls-1" d="M1184.12,409.65V378.43h28.57v31.22Zm0,211.92V449.51h28.57V621.57Z" transform="translate(0 -378.43)"/><path class="cls-1" d="M1288.18,568.09V472.76H1251V449.51h37.19V409.32h28.57v40.19H1430v23.25H1316.75v84.37q0,23.6,9.3,32.39t32.89,8.8h9q27.91,0,35.88-8.14t8-35.37V542.18H1435v18.6q0,31.23-9.3,43.19-14,17.61-55.8,17.6h-15.62Q1288.19,621.57,1288.18,568.09Z" transform="translate(0 -378.43)"/><path class="cls-1" d="M1471.43,409.65V378.43H1500v31.22Zm0,211.92V449.51H1500V621.57Z" transform="translate(0 -378.43)"/><path class="cls-1" d="M936.41,570.75v-10.3H963v8.31q0,15.93,9.13,22.75t31.06,6.81h61.12q34.55,0,44.18-4,12.29-5,12.28-22.91v-1.33q0-13.62-6.64-18.61-8.29-6.63-32.22-6.64h-88q-29.89,0-42.51-10.46t-12.63-34.71v-10q0-22.24,16.61-31.89,19.26-10.95,69.42-11h43.85q44.16,0,60.78,12.29,12.63,9.32,12.62,30.23v9h-26.57v-1.66q0-17.94-12.62-22.92-8.64-3.64-35.87-3.65h-49.83q-30.89,0-40.35,4.48t-9.47,18.77v6.31q0,11.63,6,16.27,7.63,5.65,28.56,5.65h75.4q37.53,0,52.15,8,19.93,10.63,19.93,42.19v.66q0,31.56-26.24,42.52-16.27,6.63-52.48,6.64h-52.48q-41.52,0-56.8-6.31Q936.41,604.64,936.41,570.75Z" transform="translate(0 -378.43)"/><path class="cls-2" d="M805.79,591c-32.94,0-48.49-27.53-61-49.65-12.62-22.35-21.2-36.06-37.68-36.06s-25.42,13.8-38.43,36.51c-12.56,21.92-28.19,49.2-60.33,49.2s-47.8-27.41-60.3-49.43c-12.82-22.57-21.75-36.28-37.74-36.28V480.13c31.77,0,46.55,26,59.59,49s22,36.7,38.45,36.7S633.86,552,646.9,529.27c13.19-23,28.15-49.14,60.23-49.14s46.64,25.94,59.56,48.82,22,36.88,39.1,36.88,26.19-14,39.14-37c12.81-22.82,27.34-48.67,59-48.67v25.12c-16.13,0-24.61,13.63-37.1,35.86S838.82,591,805.79,591Z" transform="translate(0 -378.43)"/></svg>